<svg width="343" height="21" viewBox="0 0 343 21" fill="none" xmlns="http://www.w3.org/2000/svg">
<rect y="10" width="153.5" height="1" fill="#5B5B5B"/>
<path d="M171.514 10.4091C171.514 11.483 171.32 12.411 170.933 13.1932C170.545 13.9754 170.013 14.5786 169.337 15.0028C168.661 15.4271 167.888 15.6392 167.02 15.6392C166.152 15.6392 165.379 15.4271 164.703 15.0028C164.027 14.5786 163.495 13.9754 163.107 13.1932C162.72 12.411 162.526 11.483 162.526 10.4091C162.526 9.33523 162.72 8.4072 163.107 7.625C163.495 6.8428 164.027 6.23958 164.703 5.81534C165.379 5.3911 166.152 5.17898 167.02 5.17898C167.888 5.17898 168.661 5.3911 169.337 5.81534C170.013 6.23958 170.545 6.8428 170.933 7.625C171.32 8.4072 171.514 9.33523 171.514 10.4091ZM170.321 10.4091C170.321 9.52746 170.174 8.78338 169.879 8.17685C169.587 7.57031 169.191 7.11127 168.69 6.79972C168.193 6.48816 167.636 6.33239 167.02 6.33239C166.403 6.33239 165.845 6.48816 165.345 6.79972C164.847 7.11127 164.451 7.57031 164.156 8.17685C163.865 8.78338 163.719 9.52746 163.719 10.4091C163.719 11.2907 163.865 12.0348 164.156 12.6413C164.451 13.2479 164.847 13.7069 165.345 14.0185C165.845 14.33 166.403 14.4858 167.02 14.4858C167.636 14.4858 168.193 14.33 168.69 14.0185C169.191 13.7069 169.587 13.2479 169.879 12.6413C170.174 12.0348 170.321 11.2907 170.321 10.4091ZM173.587 15.5V5.31818H177.028C177.823 5.31818 178.476 5.45407 178.987 5.72585C179.497 5.99432 179.875 6.36387 180.12 6.83452C180.365 7.30516 180.488 7.84044 180.488 8.44034C180.488 9.04025 180.365 9.57221 180.12 10.0362C179.875 10.5002 179.499 10.8648 178.992 11.13C178.484 11.3918 177.837 11.5227 177.048 11.5227H174.264V10.4091H177.008C177.551 10.4091 177.989 10.3295 178.32 10.1705C178.655 10.0114 178.897 9.78598 179.046 9.49432C179.199 9.19934 179.275 8.84801 179.275 8.44034C179.275 8.03267 179.199 7.67637 179.046 7.37145C178.894 7.06652 178.65 6.8312 178.315 6.66548C177.981 6.49645 177.538 6.41193 176.988 6.41193H174.82V15.5H173.587ZM178.38 10.9261L180.886 15.5H179.454L176.988 10.9261H178.38Z" fill="#717680"/>
<rect x="189.5" y="10" width="153.5" height="1" fill="#5B5B5B"/>
</svg>
