<svg width="25" height="25" viewBox="0 0 25 25" fill="none" xmlns="http://www.w3.org/2000/svg">
<g clip-path="url(#clip0_174_1362)">
<path d="M16.9316 6.22095H16.9336C18.4535 6.34361 19.5981 6.8766 20.4131 7.80005C19.0308 8.79257 18.2746 10.1209 18.1904 11.762L18.1826 12.1311C18.1989 13.6656 18.7617 14.9644 19.8633 15.9875V15.9885C20.2414 16.3474 20.6553 16.6452 21.1055 16.8821C21.0333 17.075 20.9607 17.2635 20.8838 17.4465C20.5639 18.1855 20.1868 18.8633 19.751 19.4846C19.1334 20.3651 18.6526 20.9368 18.3086 21.2356L18.3027 21.2405L18.2979 21.2454C17.7655 21.7349 17.2291 21.9591 16.6777 21.9749C16.2656 21.9748 15.729 21.8566 15.0596 21.5813L15.0586 21.5803L14.7783 21.4729C14.1302 21.2371 13.5106 21.1125 12.9219 21.1125C12.2232 21.1126 11.4922 21.2728 10.7324 21.5793L10.7314 21.5803C10.0376 21.8611 9.52549 21.9863 9.17188 21.9983L9.16797 21.9993C8.67419 22.0203 8.1312 21.8078 7.52734 21.2463L7.51562 21.2366L7.36719 21.0999C7.00829 20.7522 6.55325 20.198 6.00098 19.4172V19.4163L5.76074 19.0657C5.21441 18.2291 4.75315 17.2743 4.37988 16.1965H4.38086C3.92512 14.8691 3.7002 13.5945 3.7002 12.3694C3.7002 10.9682 4.00246 9.78907 4.58594 8.8147L4.58789 8.81079C5.04764 8.02612 5.6555 7.41262 6.41602 6.96118C7.17387 6.51134 7.98912 6.28232 8.87305 6.26685C9.31525 6.26759 9.94498 6.40766 10.79 6.7229V6.72192C11.2268 6.88584 11.5934 7.0134 11.8867 7.09985C12.1635 7.18141 12.4258 7.24341 12.627 7.24341C12.7366 7.24336 12.8596 7.21728 12.9619 7.19263C13.0763 7.16504 13.2144 7.12594 13.373 7.07642C13.6918 6.97688 14.1162 6.82975 14.6416 6.63696L14.6406 6.63599C15.5916 6.29401 16.3483 6.17148 16.9316 6.22095ZM16.5947 1.0686C16.5651 1.9872 16.2163 2.85987 15.5146 3.6936C14.7349 4.60517 13.8651 5.12685 12.9658 5.19946C12.9892 4.30548 13.3889 3.32434 14.1152 2.5022L14.1182 2.50024C14.4765 2.08887 14.9385 1.73812 15.5146 1.45337C15.898 1.26653 16.258 1.14053 16.5947 1.0686Z" fill="black" stroke="#8D8D8D"/>
</g>
<defs>
<clipPath id="clip0_174_1362">
<rect width="24" height="24" fill="white" transform="translate(0.5 0.5)"/>
</clipPath>
</defs>
</svg>
