<svg width="23" height="23" viewBox="0 0 23 23" fill="none" xmlns="http://www.w3.org/2000/svg">
<path d="M21.25 17.7045C21.25 18.1747 21.0632 18.6256 20.7308 18.958C20.3983 19.2905 19.9474 19.4773 19.4773 19.4773H3.52273C3.05257 19.4773 2.60167 19.2905 2.26922 18.958C1.93677 18.6256 1.75 18.1747 1.75 17.7045V7.95452C1.75 7.48437 1.93677 7.03347 2.26922 6.70102C2.60167 6.36856 3.05257 6.1818 3.52273 6.1818H7.06818L8.84091 3.52271H14.1591L15.9318 6.1818H19.4773C19.9474 6.1818 20.3983 6.36856 20.7308 6.70102C21.0632 7.03347 21.25 7.48437 21.25 7.95452V17.7045Z" fill="white"/>
<path d="M11.5 15.9318C13.4581 15.9318 15.0455 14.3444 15.0455 12.3863C15.0455 10.4282 13.4581 8.84089 11.5 8.84089C9.5419 8.84089 7.95455 10.4282 7.95455 12.3863C7.95455 14.3444 9.5419 15.9318 11.5 15.9318Z" fill="white"/>
<path d="M21.25 17.7045C21.25 18.1747 21.0632 18.6256 20.7308 18.958C20.3983 19.2905 19.9474 19.4773 19.4773 19.4773H3.52273C3.05257 19.4773 2.60167 19.2905 2.26922 18.958C1.93677 18.6256 1.75 18.1747 1.75 17.7045V7.95452C1.75 7.48437 1.93677 7.03347 2.26922 6.70102C2.60167 6.36856 3.05257 6.1818 3.52273 6.1818H7.06818L8.84091 3.52271H14.1591L15.9318 6.1818H19.4773C19.9474 6.1818 20.3983 6.36856 20.7308 6.70102C21.0632 7.03347 21.25 7.48437 21.25 7.95452V17.7045Z" stroke="black" stroke-width="1.32955" stroke-linecap="round" stroke-linejoin="round"/>
<path d="M11.5 15.9318C13.4581 15.9318 15.0455 14.3444 15.0455 12.3863C15.0455 10.4282 13.4581 8.84089 11.5 8.84089C9.5419 8.84089 7.95455 10.4282 7.95455 12.3863C7.95455 14.3444 9.5419 15.9318 11.5 15.9318Z" stroke="black" stroke-width="1.32955" stroke-linecap="round" stroke-linejoin="round"/>
</svg>
