<svg width="19" height="19" viewBox="0 0 19 19" fill="none" xmlns="http://www.w3.org/2000/svg">
<path d="M10.9445 16.0839C10.8098 16.316 10.6165 16.5087 10.384 16.6427C10.1515 16.7766 9.8878 16.8471 9.61945 16.8471C9.35109 16.8471 9.08744 16.7766 8.8549 16.6427C8.62236 16.5087 8.42909 16.316 8.29444 16.0839M14.2149 6.12716C14.2149 4.90838 13.7307 3.73951 12.8689 2.87771C12.0071 2.0159 10.8382 1.53174 9.61945 1.53174C8.40067 1.53174 7.2318 2.0159 6.37 2.87771C5.50819 3.73951 5.02403 4.90838 5.02403 6.12716C5.02403 11.4885 2.72632 13.0203 2.72632 13.0203H16.5126C16.5126 13.0203 14.2149 11.4885 14.2149 6.12716Z" stroke="white" stroke-width="1.53181" stroke-linecap="round" stroke-linejoin="round"/>
</svg>
