<svg width="16" height="16" viewBox="0 0 16 16" fill="none" xmlns="http://www.w3.org/2000/svg">
<g clip-path="url(#clip0_62_2289)">
<path d="M5.29965 13.0888C6.53597 13.723 7.95816 13.8948 9.30994 13.5732C10.6617 13.2516 11.8542 12.4577 12.6724 11.3347C13.4907 10.2117 13.881 8.83336 13.7729 7.44806C13.6648 6.06277 13.0655 4.76162 12.083 3.7791C11.1005 2.79657 9.79933 2.19727 8.41404 2.0892C7.02874 1.98113 5.6504 2.37139 4.52738 3.18966C3.40437 4.00793 2.61054 5.20039 2.28894 6.55216C1.96734 7.90394 2.13912 9.32613 2.77333 10.5625L1.47778 14.3843L5.29965 13.0888Z" stroke="white" stroke-width="1.29555" stroke-linecap="round" stroke-linejoin="round"/>
</g>
<defs>
<clipPath id="clip0_62_2289">
<rect width="15.5466" height="15.5466" fill="white" transform="translate(0.182129 0.133301)"/>
</clipPath>
</defs>
</svg>
