<svg width="25" height="25" viewBox="0 0 25 25" fill="none" xmlns="http://www.w3.org/2000/svg">
<path d="M12.5002 13.5417C13.0755 13.5417 13.5418 13.0754 13.5418 12.5001C13.5418 11.9248 13.0755 11.4584 12.5002 11.4584C11.9249 11.4584 11.4585 11.9248 11.4585 12.5001C11.4585 13.0754 11.9249 13.5417 12.5002 13.5417Z" stroke="#D7D7D7" stroke-width="2.83333" stroke-linecap="round" stroke-linejoin="round"/>
<path d="M12.5002 6.25008C13.0755 6.25008 13.5418 5.78371 13.5418 5.20841C13.5418 4.63312 13.0755 4.16675 12.5002 4.16675C11.9249 4.16675 11.4585 4.63312 11.4585 5.20841C11.4585 5.78371 11.9249 6.25008 12.5002 6.25008Z" stroke="#D7D7D7" stroke-width="2.83333" stroke-linecap="round" stroke-linejoin="round"/>
<path d="M12.5002 20.8334C13.0755 20.8334 13.5418 20.367 13.5418 19.7917C13.5418 19.2165 13.0755 18.7501 12.5002 18.7501C11.9249 18.7501 11.4585 19.2165 11.4585 19.7917C11.4585 20.367 11.9249 20.8334 12.5002 20.8334Z" stroke="#D7D7D7" stroke-width="2.83333" stroke-linecap="round" stroke-linejoin="round"/>
</svg>
