<svg width="30" height="30" viewBox="0 0 30 30" fill="none" xmlns="http://www.w3.org/2000/svg">
<g clip-path="url(#clip0_835_7535)">
<path d="M15.1667 1.01782C10.8332 1.01782 7.30142 2.23982 4.854 4.68725C2.40657 7.13467 1.18457 10.6665 1.18457 15C1.18457 19.3335 2.40657 22.8652 4.854 25.3128C7.30142 27.7602 10.8332 28.9821 15.1667 28.9821C19.5002 28.9821 23.0319 27.7602 25.4795 25.3128C27.9269 22.8652 29.1489 19.3335 29.1489 15C29.1489 10.6665 27.9269 7.13467 25.4795 4.68725C23.0319 2.23982 19.5002 1.01782 15.1667 1.01782Z" fill="#AB9FF2"/>
<path fill-rule="evenodd" clip-rule="evenodd" d="M20.2348 7.40607C21.5772 7.50432 22.6311 8.5583 22.7293 9.90063C22.9569 13.0111 22.3223 18.3978 17.8436 23.6787C16.7461 24.9727 14.7 25.0724 13.5962 23.622C12.9296 22.7462 12.184 21.5628 11.7241 20.2426L16.1124 15.8538C16.618 15.3482 16.618 14.5285 16.1124 14.0229C15.6067 13.5174 14.787 13.5174 14.2814 14.023L9.89341 18.4115C8.573 17.9516 7.38949 17.2059 6.51344 16.5392C5.06309 15.4355 5.16268 13.3893 6.45671 12.2919C11.7377 7.81317 17.1243 7.1784 20.2348 7.40607Z" fill="url(#paint0_linear_835_7535)"/>
</g>
<defs>
<linearGradient id="paint0_linear_835_7535" x1="4.7468" y1="7.36621" x2="22.9699" y2="7.6313" gradientUnits="userSpaceOnUse">
<stop stop-color="#6366F1"/>
<stop offset="1" stop-color="#9500FF"/>
</linearGradient>
<clipPath id="clip0_835_7535">
<rect width="29" height="29" fill="white" transform="translate(0.666687 0.5)"/>
</clipPath>
</defs>
</svg>
