<svg width="29" height="28" viewBox="0 0 29 28" fill="none" xmlns="http://www.w3.org/2000/svg">
<path d="M14.1667 0.0178223C9.83322 0.0178223 6.30142 1.23982 3.854 3.68725C1.40657 6.13467 0.18457 9.66647 0.18457 14C0.18457 18.3335 1.40657 21.8652 3.854 24.3128C6.30142 26.7602 9.83322 27.9821 14.1667 27.9821C18.5002 27.9821 22.0319 26.7602 24.4795 24.3128C26.9269 21.8652 28.1489 18.3335 28.1489 14C28.1489 9.66647 26.9269 6.13467 24.4795 3.68725C22.0319 1.23982 18.5002 0.0178223 14.1667 0.0178223Z" fill="#D7D7D7"/>
<path fill-rule="evenodd" clip-rule="evenodd" d="M19.2348 6.40595C20.5772 6.5042 21.6311 7.55818 21.7293 8.90051C21.9569 12.011 21.3223 17.3976 16.8436 22.6786C15.7461 23.9726 13.7 24.0723 12.5962 22.6218C11.9296 21.746 11.184 20.5626 10.7241 19.2425L15.1124 14.8537C15.618 14.3481 15.618 13.5284 15.1124 13.0228C14.6067 12.5172 13.787 12.5173 13.2814 13.0229L8.89341 17.4114C7.573 16.9515 6.38949 16.2058 5.51344 15.5391C4.06309 14.4353 4.16268 12.3892 5.45671 11.2918C10.7377 6.81304 16.1243 6.17828 19.2348 6.40595Z" fill="white"/>
</svg>
