<svg width="24" height="24" viewBox="0 0 24 24" fill="none" xmlns="http://www.w3.org/2000/svg">
<g clip-path="url(#clip0_835_7491)">
<path fill-rule="evenodd" clip-rule="evenodd" d="M3.19192 0.74151C3.94599 0.657725 4.74606 0.582153 5.57241 0.582153C6.39713 0.582153 7.19884 0.657725 7.94799 0.74151C8.62288 0.818807 9.25156 1.12288 9.73115 1.60396C10.2107 2.08505 10.5129 2.71467 10.5881 3.3898C10.6686 4.1373 10.7392 4.9308 10.7392 5.74894C10.7392 6.13665 10.7228 6.5178 10.6981 6.89073C9.81687 7.28243 9.01501 7.8326 8.33242 8.51387C7.65263 9.19546 7.10311 9.99553 6.71092 10.8747C6.33203 10.9022 5.9523 10.9164 5.57241 10.9174C4.74606 10.9174 3.94599 10.8418 3.1952 10.758C2.52001 10.6811 1.89096 10.3771 1.41103 9.89603C0.931108 9.41491 0.628758 8.7851 0.553487 8.10972C0.461019 7.32606 0.410566 6.538 0.402344 5.74894C0.402344 4.9308 0.472987 4.1373 0.553487 3.3898C0.628615 2.71491 0.930491 2.08549 1.40976 1.60443C1.88902 1.12338 2.51732 0.819155 3.19192 0.74151ZM6.04227 13.0827C5.88461 13.0773 5.72688 13.0746 5.56913 13.0744C4.74442 13.0744 3.9427 13.15 3.19356 13.2338C2.51867 13.3111 1.88999 13.6152 1.41039 14.0962C0.9308 14.5773 0.628686 15.207 0.553487 15.8821C0.461019 16.6658 0.410566 17.4538 0.402344 18.2429C0.402344 19.061 0.472987 19.8562 0.553487 20.6037C0.701344 21.9902 1.81027 23.0975 3.19356 23.2519C3.98187 23.3486 4.77496 23.4013 5.56913 23.4097C6.36385 23.4014 7.15749 23.3487 7.94634 23.2519C8.52134 23.1862 9.04706 22.9595 9.47749 22.6162C9.06583 22.3382 8.68183 22.0213 8.33077 21.6699C6.56963 19.9104 5.87306 17.5348 5.87306 15.0919C5.87136 14.4185 5.92798 13.7463 6.04227 13.0827ZM22.4495 9.68358C22.8207 9.23567 23.0516 8.68821 23.1132 8.10972C23.1937 7.36222 23.2643 6.56873 23.2643 5.74894C23.2643 4.9308 23.1937 4.1373 23.1132 3.3898C23.0384 2.71481 22.7366 2.08522 22.2573 1.60411C21.7779 1.123 21.1495 0.818869 20.4748 0.74151C19.6854 0.64424 18.8912 0.591038 18.0959 0.582153C17.2712 0.582153 16.4695 0.657725 15.7203 0.74151C15.0455 0.818807 14.4168 1.12288 13.9372 1.60396C13.4576 2.08505 13.1555 2.71467 13.0803 3.3898C12.9879 4.17292 12.9374 4.96043 12.9291 5.74894C12.9291 5.90665 12.9324 6.06437 12.9357 6.2188C13.5876 6.10861 14.2477 6.0542 14.9088 6.05615C17.3517 6.05615 19.7273 6.75272 21.4868 8.51387C21.8531 8.87858 22.1718 9.26958 22.4495 9.68358Z" fill="#D7D7D7"/>
<path fill-rule="evenodd" clip-rule="evenodd" d="M10.3909 15.0919C10.3909 13.4786 10.8411 12.3927 11.5245 11.7076C12.2096 11.0242 13.2955 10.574 14.9088 10.574C16.5221 10.574 17.608 11.0242 18.2931 11.7076C18.9765 12.3927 19.4266 13.4786 19.4266 15.0919C19.4266 16.7052 18.9765 17.7911 18.2931 18.4762C17.608 19.1596 16.5221 19.6097 14.9088 19.6097C13.2955 19.6097 12.2096 19.1596 11.5245 18.4762C10.8411 17.7911 10.3909 16.7052 10.3909 15.0919ZM14.9088 8.10974C12.8421 8.10974 11.053 8.6946 9.78306 9.96617C8.51149 11.2361 7.92664 13.0252 7.92664 15.0919C7.92664 17.1586 8.51149 18.9477 9.78306 20.2176C11.053 21.4892 12.8421 22.074 14.9088 22.074C16.4941 22.074 17.9152 21.729 19.0652 20.9963L21.1254 23.0565C21.3589 23.2741 21.6679 23.3926 21.9871 23.387C22.3063 23.3813 22.6108 23.252 22.8366 23.0263C23.0623 22.8005 23.1916 22.496 23.1973 22.1767C23.2029 21.8575 23.0844 21.5486 22.8668 21.315L20.8083 19.2549C21.5459 18.1049 21.8926 16.6805 21.8926 15.0919C21.8926 13.0252 21.3061 11.2361 20.0361 9.96617C18.7646 8.6946 16.9755 8.10974 14.9104 8.10974H14.9088Z" fill="white"/>
</g>
<defs>
<clipPath id="clip0_835_7491">
<rect width="23" height="23" fill="white" transform="translate(0.333344 0.5)"/>
</clipPath>
</defs>
</svg>
