<svg width="24" height="25" viewBox="0 0 24 25" fill="none" xmlns="http://www.w3.org/2000/svg">
<path d="M2.06202 12.848C1.97868 12.6235 1.97868 12.3765 2.06202 12.152C2.87372 10.1838 4.25153 8.50103 6.02079 7.31689C7.79004 6.13275 9.87106 5.50061 12 5.50061C14.129 5.50061 16.21 6.13275 17.9792 7.31689C19.7485 8.50103 21.1263 10.1838 21.938 12.152C22.0214 12.3765 22.0214 12.6235 21.938 12.848C21.1263 14.8161 19.7485 16.499 17.9792 17.6831C16.21 18.8672 14.129 19.4994 12 19.4994C9.87106 19.4994 7.79004 18.8672 6.02079 17.6831C4.25153 16.499 2.87372 14.8161 2.06202 12.848Z" stroke="#C9C9C9" stroke-width="2" stroke-linecap="round" stroke-linejoin="round"/>
<path d="M12 15.5C13.6569 15.5 15 14.1568 15 12.5C15 10.8431 13.6569 9.49999 12 9.49999C10.3432 9.49999 9.00002 10.8431 9.00002 12.5C9.00002 14.1568 10.3432 15.5 12 15.5Z" stroke="#C9C9C9" stroke-width="2" stroke-linecap="round" stroke-linejoin="round"/>
</svg>
