<svg width="25" height="24" viewBox="0 0 25 24" fill="none" xmlns="http://www.w3.org/2000/svg">
<path d="M2.96338 21C2.96329 19.4603 3.40751 17.9533 4.24272 16.6599C5.07794 15.3664 6.26865 14.3415 7.67198 13.708C9.0753 13.0746 10.6316 12.8595 12.1541 13.0887C13.6767 13.3178 15.1007 13.9815 16.2554 15M19.9634 16V22M22.9634 19H16.9634M15.9634 8C15.9634 10.7614 13.7248 13 10.9634 13C8.20196 13 5.96338 10.7614 5.96338 8C5.96338 5.23858 8.20196 3 10.9634 3C13.7248 3 15.9634 5.23858 15.9634 8Z" stroke="white" stroke-width="2" stroke-linecap="round" stroke-linejoin="round"/>
</svg>
