<svg width="19" height="19" viewBox="0 0 19 19" fill="none" xmlns="http://www.w3.org/2000/svg">
<path d="M10.6014 16.0839C10.4668 16.316 10.2735 16.5087 10.041 16.6427C9.80843 16.7766 9.54479 16.8471 9.27643 16.8471C9.00807 16.8471 8.74443 16.7766 8.51189 16.6427C8.27934 16.5087 8.08607 16.316 7.95142 16.0839M13.8719 6.12716C13.8719 4.90838 13.3877 3.73951 12.5259 2.87771C11.6641 2.0159 10.4952 1.53174 9.27643 1.53174C8.05765 1.53174 6.88879 2.0159 6.02698 2.87771C5.16517 3.73951 4.68101 4.90838 4.68101 6.12716C4.68101 11.4885 2.3833 13.0203 2.3833 13.0203H16.1696C16.1696 13.0203 13.8719 11.4885 13.8719 6.12716Z" stroke="white" stroke-width="1.53181" stroke-linecap="round" stroke-linejoin="round"/>
</svg>
