<svg width="16" height="16" viewBox="0 0 16 16" fill="none" xmlns="http://www.w3.org/2000/svg">
<g clip-path="url(#clip0_576_714)">
<path d="M13.4996 3.21292C13.1687 2.88191 12.7759 2.61933 12.3435 2.44018C11.9111 2.26103 11.4477 2.16882 10.9797 2.16882C10.5117 2.16882 10.0483 2.26103 9.61593 2.44018C9.18356 2.61933 8.79073 2.88191 8.45988 3.21292L7.77324 3.89956L7.0866 3.21292C6.4183 2.54462 5.51189 2.16917 4.56676 2.16917C3.62164 2.16917 2.71523 2.54462 2.04692 3.21292C1.37862 3.88122 1.00317 4.78764 1.00317 5.73276C1.00317 6.67788 1.37862 7.58429 2.04692 8.2526L2.73356 8.93924L7.77324 13.9789L12.8129 8.93924L13.4996 8.2526C13.8306 7.92174 14.0931 7.52891 14.2723 7.09655C14.4514 6.66419 14.5437 6.20077 14.5437 5.73276C14.5437 5.26475 14.4514 4.80133 14.2723 4.36897C14.0931 3.9366 13.8306 3.54377 13.4996 3.21292Z" fill="#FF0505" stroke="#FF0505" stroke-width="1.29555" stroke-linecap="round" stroke-linejoin="round"/>
</g>
<defs>
<clipPath id="clip0_576_714">
<rect width="15.5466" height="15.5466" fill="white" transform="translate(0 0.226685)"/>
</clipPath>
</defs>
</svg>
