<svg width="16" height="16" viewBox="0 0 16 16" fill="none" xmlns="http://www.w3.org/2000/svg">
<g clip-path="url(#clip0_62_2286)">
<path d="M13.4996 3.11978C13.1687 2.78877 12.7759 2.52619 12.3435 2.34704C11.9111 2.16789 11.4477 2.07568 10.9797 2.07568C10.5117 2.07568 10.0483 2.16789 9.61593 2.34704C9.18356 2.52619 8.79073 2.78877 8.45988 3.11978L7.77324 3.80642L7.0866 3.11978C6.4183 2.45148 5.51189 2.07603 4.56676 2.07603C3.62164 2.07603 2.71523 2.45148 2.04692 3.11978C1.37862 3.78808 1.00317 4.6945 1.00317 5.63962C1.00317 6.58474 1.37862 7.49115 2.04692 8.15946L2.73356 8.8461L7.77324 13.8858L12.8129 8.8461L13.4996 8.15946C13.8306 7.8286 14.0931 7.43577 14.2723 7.00341C14.4514 6.57105 14.5437 6.10763 14.5437 5.63962C14.5437 5.17161 14.4514 4.70819 14.2723 4.27583C14.0931 3.84346 13.8306 3.45064 13.4996 3.11978V3.11978Z" stroke="#D7D7D7" stroke-width="1.29555" stroke-linecap="round" stroke-linejoin="round"/>
</g>
<defs>
<clipPath id="clip0_62_2286">
<rect width="15.5466" height="15.5466" fill="white" transform="translate(0 0.133545)"/>
</clipPath>
</defs>
</svg>
