<svg width="26" height="26" viewBox="0 0 26 26" fill="none" xmlns="http://www.w3.org/2000/svg">
<path fill-rule="evenodd" clip-rule="evenodd" d="M14.6844 2.3493C14.1999 1.98147 13.6083 1.78235 13 1.78235C12.3917 1.78235 11.8001 1.98147 11.3156 2.3493L10.0899 3.27973C6.48845 6.015 3.4032 9.37004 0.978713 13.1876L0.586856 13.806C0.408587 14.0868 0.308991 14.4103 0.298475 14.7427C0.287959 15.0751 0.366908 15.4043 0.527074 15.6958C0.687239 15.9873 0.922744 16.2304 1.20898 16.3998C1.49522 16.5691 1.82169 16.6585 2.15428 16.6586H3.43757C3.36328 18.3672 3.45614 20.0776 3.71614 21.7694C3.97614 23.452 5.42471 24.6926 7.12586 24.6926H18.8741C20.5771 24.6926 22.0239 23.452 22.282 21.7713C22.542 20.0776 22.6349 18.3653 22.5606 16.6586H23.8457C24.1783 16.6585 24.5048 16.5691 24.791 16.3998C25.0773 16.2304 25.3128 15.9873 25.4729 15.6958C25.6331 15.4043 25.712 15.0751 25.7015 14.7427C25.691 14.4103 25.5914 14.0868 25.4131 13.806L25.0213 13.1876C22.5968 9.37004 19.5115 6.015 15.9101 3.27973L14.6844 2.3493Z" fill="url(#paint0_linear_835_7487)"/>
<path fill-rule="evenodd" clip-rule="evenodd" d="M15.3214 24.6926V18.5714C15.3214 17.9557 15.0768 17.3653 14.6415 16.9299C14.2061 16.4946 13.6157 16.25 13 16.25C12.3843 16.25 11.7938 16.4946 11.3585 16.9299C10.9231 17.3653 10.6786 17.9557 10.6786 18.5714V24.6926H15.3214Z" fill="white"/>
<defs>
<linearGradient id="paint0_linear_835_7487" x1="-0.742928" y1="1.78235" x2="25.9958" y2="2.21367" gradientUnits="userSpaceOnUse">
<stop stop-color="#6366F1"/>
<stop offset="1" stop-color="#9500FF"/>
</linearGradient>
</defs>
</svg>
