<svg width="17" height="17" viewBox="0 0 17 17" fill="none" xmlns="http://www.w3.org/2000/svg">
<path d="M8.49996 9.20837C8.89116 9.20837 9.20829 8.89124 9.20829 8.50004C9.20829 8.10884 8.89116 7.79171 8.49996 7.79171C8.10876 7.79171 7.79163 8.10884 7.79163 8.50004C7.79163 8.89124 8.10876 9.20837 8.49996 9.20837Z" stroke="#D7D7D7" stroke-width="1.41667" stroke-linecap="round" stroke-linejoin="round"/>
<path d="M8.49996 4.25004C8.89116 4.25004 9.20829 3.93291 9.20829 3.54171C9.20829 3.15051 8.89116 2.83337 8.49996 2.83337C8.10876 2.83337 7.79163 3.15051 7.79163 3.54171C7.79163 3.93291 8.10876 4.25004 8.49996 4.25004Z" stroke="#D7D7D7" stroke-width="1.41667" stroke-linecap="round" stroke-linejoin="round"/>
<path d="M8.49996 14.1667C8.89116 14.1667 9.20829 13.8496 9.20829 13.4584C9.20829 13.0672 8.89116 12.75 8.49996 12.75C8.10876 12.75 7.79163 13.0672 7.79163 13.4584C7.79163 13.8496 8.10876 14.1667 8.49996 14.1667Z" stroke="#D7D7D7" stroke-width="1.41667" stroke-linecap="round" stroke-linejoin="round"/>
</svg>
