<svg width="20" height="19" viewBox="0 0 20 19" fill="none" xmlns="http://www.w3.org/2000/svg">
<path d="M12.3751 3.95831L15.5418 7.12498M17.2629 5.39281C17.6814 4.97435 17.9166 4.40676 17.9167 3.8149C17.9168 3.22304 17.6817 2.65539 17.2633 2.23683C16.8448 1.81827 16.2772 1.58308 15.6853 1.58301C15.0935 1.58293 14.5258 1.81798 14.1073 2.23643L3.54169 12.8044C3.35788 12.9877 3.22195 13.2133 3.14586 13.4615L2.10007 16.9068C2.07961 16.9753 2.07806 17.048 2.0956 17.1173C2.11313 17.1865 2.14909 17.2498 2.19966 17.3003C2.25023 17.3508 2.31352 17.3866 2.38282 17.404C2.45212 17.4215 2.52485 17.4198 2.59328 17.3992L6.0394 16.3542C6.28733 16.2788 6.51296 16.1437 6.69649 15.9608L17.2629 5.39281Z" stroke="white" stroke-width="1.5" stroke-linecap="round" stroke-linejoin="round"/>
</svg>
