<svg width="157" height="26" viewBox="0 0 157 26" fill="none" xmlns="http://www.w3.org/2000/svg">
<rect y="4.67871" width="2.59934" height="16.6358" rx="1.29967" fill="url(#paint0_linear_150_5471)"/>
<rect x="4.67871" width="2.59934" height="25.9934" rx="1.29967" fill="url(#paint1_linear_150_5471)"/>
<rect x="9.35742" width="2.59934" height="25.9934" rx="1.29967" fill="url(#paint2_linear_150_5471)"/>
<rect x="14.0361" y="4.67871" width="2.59934" height="16.6358" rx="1.29967" fill="url(#paint3_linear_150_5471)"/>
<rect x="18.7148" width="2.59934" height="25.9934" rx="1.29967" fill="url(#paint4_linear_150_5471)"/>
<rect x="23.3936" y="6.7583" width="2.59934" height="12.4768" rx="1.29967" fill="url(#paint5_linear_150_5471)"/>
<rect x="28.0723" width="2.59934" height="25.9934" rx="1.29967" fill="url(#paint6_linear_150_5471)"/>
<rect x="32.752" width="2.59934" height="25.9934" rx="1.29967" fill="url(#paint7_linear_150_5471)"/>
<rect x="37.4307" y="6.7583" width="2.59934" height="12.4768" rx="1.29967" fill="url(#paint8_linear_150_5471)"/>
<rect x="42.1094" width="2.59934" height="25.9934" rx="1.29967" fill="url(#paint9_linear_150_5471)"/>
<rect x="46.7881" y="4.67871" width="2.59934" height="16.6358" rx="1.29967" fill="url(#paint10_linear_150_5471)"/>
<rect x="51.4668" width="2.59934" height="25.9934" rx="1.29967" fill="url(#paint11_linear_150_5471)"/>
<rect x="56.1455" y="10.3975" width="2.59934" height="5.19868" rx="1.29967" fill="url(#paint12_linear_150_5471)"/>
<rect x="60.8242" width="2.59934" height="25.9934" rx="1.29967" fill="url(#paint13_linear_150_5471)"/>
<rect x="65.5029" y="4.67871" width="2.59934" height="16.6358" rx="1.29967" fill="url(#paint14_linear_150_5471)"/>
<rect x="70.1816" width="2.59934" height="25.9934" rx="1.29967" fill="url(#paint15_linear_150_5471)"/>
<rect x="74.8604" y="6.7583" width="2.59934" height="12.4768" rx="1.29967" fill="url(#paint16_linear_150_5471)"/>
<rect x="79.54" width="2.59934" height="25.9934" rx="1.29967" fill="url(#paint17_linear_150_5471)"/>
<rect x="84.2188" y="10.3975" width="2.59934" height="5.19868" rx="1.29967" fill="url(#paint18_linear_150_5471)"/>
<rect x="88.8975" width="2.59934" height="25.9934" rx="1.29967" fill="url(#paint19_linear_150_5471)"/>
<rect x="93.5762" y="4.67871" width="2.59934" height="16.6358" rx="1.29967" fill="url(#paint20_linear_150_5471)"/>
<rect x="98.2549" width="2.59934" height="25.9934" rx="1.29967" fill="url(#paint21_linear_150_5471)"/>
<rect x="102.934" y="6.7583" width="2.59934" height="12.4768" rx="1.29967" fill="url(#paint22_linear_150_5471)"/>
<rect x="107.612" width="2.59934" height="25.9934" rx="1.29967" fill="url(#paint23_linear_150_5471)"/>
<rect x="112.291" y="10.3975" width="2.59934" height="5.19868" rx="1.29967" fill="url(#paint24_linear_150_5471)"/>
<rect x="116.97" y="6.7583" width="2.59934" height="12.4768" rx="1.29967" fill="url(#paint25_linear_150_5471)"/>
<rect x="121.649" y="6.7583" width="2.59934" height="12.4768" rx="1.29967" fill="url(#paint26_linear_150_5471)"/>
<rect x="126.328" width="2.59934" height="25.9934" rx="1.29967" fill="url(#paint27_linear_150_5471)"/>
<rect x="131.007" y="6.7583" width="2.59934" height="12.4768" rx="1.29967" fill="url(#paint28_linear_150_5471)"/>
<rect x="135.686" width="2.59934" height="25.9934" rx="1.29967" fill="url(#paint29_linear_150_5471)"/>
<rect x="140.364" width="2.59934" height="25.9934" rx="1.29967" fill="url(#paint30_linear_150_5471)"/>
<rect x="145.043" width="2.59934" height="25.9934" rx="1.29967" fill="url(#paint31_linear_150_5471)"/>
<rect x="149.722" y="6.7583" width="2.59934" height="12.4768" rx="1.29967" fill="url(#paint32_linear_150_5471)"/>
<rect x="154.4" y="10.3975" width="2.59934" height="5.19868" rx="1.29967" fill="url(#paint33_linear_150_5471)"/>
<defs>
<linearGradient id="paint0_linear_150_5471" x1="-0.106458" y1="4.67871" x2="2.63005" y2="4.68493" gradientUnits="userSpaceOnUse">
<stop stop-color="#6366F1"/>
<stop offset="1" stop-color="#9500FF"/>
</linearGradient>
<linearGradient id="paint1_linear_150_5471" x1="4.57225" y1="2.07753e-07" x2="7.30877" y2="0.00398104" gradientUnits="userSpaceOnUse">
<stop stop-color="#6366F1"/>
<stop offset="1" stop-color="#9500FF"/>
</linearGradient>
<linearGradient id="paint2_linear_150_5471" x1="9.25096" y1="2.07753e-07" x2="11.9875" y2="0.00398104" gradientUnits="userSpaceOnUse">
<stop stop-color="#6366F1"/>
<stop offset="1" stop-color="#9500FF"/>
</linearGradient>
<linearGradient id="paint3_linear_150_5471" x1="13.9297" y1="4.67871" x2="16.6662" y2="4.68493" gradientUnits="userSpaceOnUse">
<stop stop-color="#6366F1"/>
<stop offset="1" stop-color="#9500FF"/>
</linearGradient>
<linearGradient id="paint4_linear_150_5471" x1="18.6084" y1="2.07753e-07" x2="21.3449" y2="0.00398104" gradientUnits="userSpaceOnUse">
<stop stop-color="#6366F1"/>
<stop offset="1" stop-color="#9500FF"/>
</linearGradient>
<linearGradient id="paint5_linear_150_5471" x1="23.2871" y1="6.7583" x2="26.0236" y2="6.76659" gradientUnits="userSpaceOnUse">
<stop stop-color="#6366F1"/>
<stop offset="1" stop-color="#9500FF"/>
</linearGradient>
<linearGradient id="paint6_linear_150_5471" x1="27.9658" y1="2.07753e-07" x2="30.7023" y2="0.00398104" gradientUnits="userSpaceOnUse">
<stop stop-color="#6366F1"/>
<stop offset="1" stop-color="#9500FF"/>
</linearGradient>
<linearGradient id="paint7_linear_150_5471" x1="32.6455" y1="2.07753e-07" x2="35.382" y2="0.00398104" gradientUnits="userSpaceOnUse">
<stop stop-color="#6366F1"/>
<stop offset="1" stop-color="#9500FF"/>
</linearGradient>
<linearGradient id="paint8_linear_150_5471" x1="37.3242" y1="6.7583" x2="40.0607" y2="6.76659" gradientUnits="userSpaceOnUse">
<stop stop-color="#6366F1"/>
<stop offset="1" stop-color="#9500FF"/>
</linearGradient>
<linearGradient id="paint9_linear_150_5471" x1="42.0029" y1="2.07753e-07" x2="44.7394" y2="0.00398104" gradientUnits="userSpaceOnUse">
<stop stop-color="#6366F1"/>
<stop offset="1" stop-color="#9500FF"/>
</linearGradient>
<linearGradient id="paint10_linear_150_5471" x1="46.6816" y1="4.67871" x2="49.4181" y2="4.68493" gradientUnits="userSpaceOnUse">
<stop stop-color="#6366F1"/>
<stop offset="1" stop-color="#9500FF"/>
</linearGradient>
<linearGradient id="paint11_linear_150_5471" x1="51.3603" y1="2.07753e-07" x2="54.0969" y2="0.00398104" gradientUnits="userSpaceOnUse">
<stop stop-color="#6366F1"/>
<stop offset="1" stop-color="#9500FF"/>
</linearGradient>
<linearGradient id="paint12_linear_150_5471" x1="56.0391" y1="10.3975" x2="58.7754" y2="10.4174" gradientUnits="userSpaceOnUse">
<stop stop-color="#6366F1"/>
<stop offset="1" stop-color="#9500FF"/>
</linearGradient>
<linearGradient id="paint13_linear_150_5471" x1="60.7178" y1="2.07753e-07" x2="63.4543" y2="0.00398104" gradientUnits="userSpaceOnUse">
<stop stop-color="#6366F1"/>
<stop offset="1" stop-color="#9500FF"/>
</linearGradient>
<linearGradient id="paint14_linear_150_5471" x1="65.3965" y1="4.67871" x2="68.133" y2="4.68493" gradientUnits="userSpaceOnUse">
<stop stop-color="#6366F1"/>
<stop offset="1" stop-color="#9500FF"/>
</linearGradient>
<linearGradient id="paint15_linear_150_5471" x1="70.0752" y1="2.07753e-07" x2="72.8117" y2="0.00398104" gradientUnits="userSpaceOnUse">
<stop stop-color="#6366F1"/>
<stop offset="1" stop-color="#9500FF"/>
</linearGradient>
<linearGradient id="paint16_linear_150_5471" x1="74.7539" y1="6.7583" x2="77.4904" y2="6.76659" gradientUnits="userSpaceOnUse">
<stop stop-color="#6366F1"/>
<stop offset="1" stop-color="#9500FF"/>
</linearGradient>
<linearGradient id="paint17_linear_150_5471" x1="79.4336" y1="2.07753e-07" x2="82.1701" y2="0.00398104" gradientUnits="userSpaceOnUse">
<stop stop-color="#6366F1"/>
<stop offset="1" stop-color="#9500FF"/>
</linearGradient>
<linearGradient id="paint18_linear_150_5471" x1="84.1123" y1="10.3975" x2="86.8487" y2="10.4174" gradientUnits="userSpaceOnUse">
<stop stop-color="#6366F1"/>
<stop offset="1" stop-color="#9500FF"/>
</linearGradient>
<linearGradient id="paint19_linear_150_5471" x1="88.791" y1="2.07753e-07" x2="91.5275" y2="0.00398104" gradientUnits="userSpaceOnUse">
<stop stop-color="#6366F1"/>
<stop offset="1" stop-color="#9500FF"/>
</linearGradient>
<linearGradient id="paint20_linear_150_5471" x1="93.4697" y1="4.67871" x2="96.2062" y2="4.68493" gradientUnits="userSpaceOnUse">
<stop stop-color="#6366F1"/>
<stop offset="1" stop-color="#9500FF"/>
</linearGradient>
<linearGradient id="paint21_linear_150_5471" x1="98.1484" y1="2.07753e-07" x2="100.885" y2="0.00398104" gradientUnits="userSpaceOnUse">
<stop stop-color="#6366F1"/>
<stop offset="1" stop-color="#9500FF"/>
</linearGradient>
<linearGradient id="paint22_linear_150_5471" x1="102.827" y1="6.7583" x2="105.564" y2="6.76659" gradientUnits="userSpaceOnUse">
<stop stop-color="#6366F1"/>
<stop offset="1" stop-color="#9500FF"/>
</linearGradient>
<linearGradient id="paint23_linear_150_5471" x1="107.506" y1="2.07753e-07" x2="110.242" y2="0.00398104" gradientUnits="userSpaceOnUse">
<stop stop-color="#6366F1"/>
<stop offset="1" stop-color="#9500FF"/>
</linearGradient>
<linearGradient id="paint24_linear_150_5471" x1="112.185" y1="10.3975" x2="114.921" y2="10.4174" gradientUnits="userSpaceOnUse">
<stop stop-color="#6366F1"/>
<stop offset="1" stop-color="#9500FF"/>
</linearGradient>
<linearGradient id="paint25_linear_150_5471" x1="116.863" y1="6.7583" x2="119.6" y2="6.76659" gradientUnits="userSpaceOnUse">
<stop stop-color="#6366F1"/>
<stop offset="1" stop-color="#9500FF"/>
</linearGradient>
<linearGradient id="paint26_linear_150_5471" x1="121.543" y1="6.7583" x2="124.279" y2="6.76659" gradientUnits="userSpaceOnUse">
<stop stop-color="#6366F1"/>
<stop offset="1" stop-color="#9500FF"/>
</linearGradient>
<linearGradient id="paint27_linear_150_5471" x1="126.222" y1="2.07753e-07" x2="128.958" y2="0.00398104" gradientUnits="userSpaceOnUse">
<stop stop-color="#6366F1"/>
<stop offset="1" stop-color="#9500FF"/>
</linearGradient>
<linearGradient id="paint28_linear_150_5471" x1="130.9" y1="6.7583" x2="133.637" y2="6.76659" gradientUnits="userSpaceOnUse">
<stop stop-color="#6366F1"/>
<stop offset="1" stop-color="#9500FF"/>
</linearGradient>
<linearGradient id="paint29_linear_150_5471" x1="135.579" y1="2.07753e-07" x2="138.316" y2="0.00398104" gradientUnits="userSpaceOnUse">
<stop stop-color="#6366F1"/>
<stop offset="1" stop-color="#9500FF"/>
</linearGradient>
<linearGradient id="paint30_linear_150_5471" x1="140.258" y1="2.07753e-07" x2="142.994" y2="0.00398104" gradientUnits="userSpaceOnUse">
<stop stop-color="#6366F1"/>
<stop offset="1" stop-color="#9500FF"/>
</linearGradient>
<linearGradient id="paint31_linear_150_5471" x1="144.937" y1="2.07753e-07" x2="147.673" y2="0.00398104" gradientUnits="userSpaceOnUse">
<stop stop-color="#6366F1"/>
<stop offset="1" stop-color="#9500FF"/>
</linearGradient>
<linearGradient id="paint32_linear_150_5471" x1="149.615" y1="6.7583" x2="152.352" y2="6.76659" gradientUnits="userSpaceOnUse">
<stop stop-color="#6366F1"/>
<stop offset="1" stop-color="#9500FF"/>
</linearGradient>
<linearGradient id="paint33_linear_150_5471" x1="154.294" y1="10.3975" x2="157.03" y2="10.4174" gradientUnits="userSpaceOnUse">
<stop stop-color="#6366F1"/>
<stop offset="1" stop-color="#9500FF"/>
</linearGradient>
</defs>
</svg>
